<svg id="Lager_1" data-name="Lager 1" xmlns="http://www.w3.org/2000/svg" viewBox="0 0 1920 1080"><defs><style>.cls-1,.cls-2{fill:#2e2e2e;}.cls-1{stroke:#fff;stroke-miterlimit:10;stroke-width:20.21px;}</style></defs><title>logga</title><path class="cls-1" d="M998.44,245.64c1,0,2,0,3.06,0,65.76.42,118.57,54.51,118.57,120.28v79.23H1286.5l0,1.55A110.87,110.87,0,0,1,1175.62,555h-57.69v68.55c0,49.4,31.86,93.46,79,108.11a274.38,274.38,0,0,0,40.46,9V849.49c-121.39-10.3-197.23-62.78-228.93-156.14a192.38,192.38,0,0,1-10-61.91Z"/><path class="cls-2" d="M658.42,836.27l.1-29.22-.1-232.35a100.35,100.35,0,0,1,10.78-45.77c36.07-70.44,143.68-74.69,185.54-5.17a104.4,104.4,0,0,1,14.67,53.9V833.85h89.73V598c0-42.38-7.54-85.29-30.31-121C905.35,440.09,867.34,412,825.05,397.2c-28.53-10-59.93-13.17-89.73-8.09-77.8,13.27-130.22,53.44-154.9,119.36-9.5,25.36-11.71,56-11.79,83.12l-.47,154.14A90.27,90.27,0,0,0,658.42,836.27Z"/><circle class="cls-2" cx="911.3" cy="310.13" r="53.61"/></svg>