<svg width="528" height="772" viewBox="0 0 528 772" fill="none" xmlns="http://www.w3.org/2000/svg">
<path d="M143.147 218.164L141.373 532.222L305.174 619.12V304.175V619.12L396.586 554.873V244.443" fill="url(#paint0_linear)"/>
<path d="M234.156 156.175L396.102 244.846L304.69 304.578L142.744 218.648L234.156 156.175Z" fill="#FCEE21"/>
<path d="M305.173 637.257L408.355 566.643V669.824L334.112 722.301L304.287 706.018L305.173 637.257Z" fill="url(#paint1_linear)"/>
<path d="M334.999 537.703L409.644 486.596L407.387 401.068C381.028 386.8 355.636 369.227 344.511 368.018C342.496 367.776 338.707 367.857 338.143 369.792C333.871 386.72 334.113 472.328 334.999 537.703Z" fill="url(#paint2_linear)"/>
<path d="M413.836 716.013L414.562 767.845C414.642 771.231 418.35 773.166 421.172 771.231L522.096 702.309C524.595 700.616 526.046 697.876 526.046 694.893L527.819 386.478C527.819 382.609 525.804 378.901 522.338 377.047C477.599 353.508 420.527 324.489 409.241 318.604C407.387 318.362 370.871 345.447 339.513 368.421L454.141 429.685C456.56 430.975 458.091 433.474 458.091 436.295L458.978 674.982C458.978 677.401 457.849 679.738 455.834 681.109L417.464 708.758C415.206 710.451 413.836 713.192 413.836 716.013Z" fill="url(#paint3_linear)"/>
<path d="M138.633 676.111L79.4648 641.932C76.321 640.078 72.3711 640.159 69.3079 642.094C32.3884 665.471 12.4776 682.641 5.54516 691.024C3.69113 693.281 3.4493 696.425 4.90028 699.004C15.7827 718.673 35.2098 728.992 54.9593 729.959C73.8221 724.477 127.75 681.593 138.633 676.111Z" fill="url(#paint4_linear)"/>
<path d="M130.249 688.767C135.892 684.252 131.297 768.651 141.776 768.893C118.4 758.656 98.8112 745.033 80.6739 730.442C78.578 727.863 79.1423 725.122 81.5606 722.22L130.249 688.767Z" fill="url(#paint5_linear)"/>
<path d="M181.195 361.167L263.579 406.389C264.465 422.35 263.014 440.568 256.807 440.326C246.328 440.488 210.537 409.936 179.18 387.93C178.535 372.533 179.099 363.021 181.195 361.167Z" fill="#333333"/>
<path d="M201.992 372.936L163.058 399.698C160.236 401.633 158.463 404.857 158.463 408.323L156.689 674.337C153.465 680.061 147.258 684.817 140.406 688.847C139.842 715.932 136.295 748.096 145.404 760.832C148.145 766.233 221.903 716.013 218.276 706.098L220.533 449.515C220.533 439.197 227.304 432.748 234.559 426.461L263.498 406.55L201.992 372.936Z" fill="url(#paint6_linear)"/>
<path d="M263.498 406.47C248.505 415.256 228.674 429.524 221.419 438.956C220.049 440.729 219.162 442.744 219.162 445.001L218.276 705.776C218.276 709 216.744 711.983 214.165 713.917C161.204 753.175 154.674 760.349 146.774 759.462C139.519 755.835 139.6 721.092 140.406 679.98C140.487 676.192 136.214 674.015 133.151 676.192C108.323 694.007 79.3035 716.658 63.0202 725.203C57.8612 727.944 51.896 728.669 46.1727 727.379C24.0049 722.381 10.5429 709.887 2.80435 695.216C1.35336 696.747 0.466647 698.924 0.144206 701.503C-0.420067 705.373 0.708477 709.323 2.88496 712.547C11.4296 725.122 25.9395 733.828 46.737 737.778C51.6542 738.745 56.8133 738.02 61.3274 735.924C76.4822 728.669 103.164 708.92 128.153 690.943C129.766 689.734 132.103 690.943 132.023 693.039C131.136 734.231 132.103 768.732 142.986 769.538C150.966 770.425 170.877 759.785 222.467 718.27C224.886 716.336 226.256 713.434 226.256 710.371L227.143 449.596C227.143 447.42 227.949 445.243 229.4 443.55C236.332 435.57 248.343 427.106 263.337 418.319V406.47H263.498Z" fill="url(#paint7_linear)"/>
<path d="M258.097 358.507C253.583 358.507 249.956 362.134 249.956 366.648V375.677C249.956 380.191 253.583 383.818 258.097 383.818C262.612 383.818 266.239 380.191 266.239 375.677V366.648C266.239 362.134 262.612 358.507 258.097 358.507Z" fill="url(#paint8_linear)"/>
<path d="M195.221 324.489C190.707 324.489 187.079 328.117 187.079 332.631V341.659C187.079 346.173 190.707 349.801 195.221 349.801C199.735 349.801 203.363 346.173 203.363 341.659V332.631C203.363 328.197 199.655 324.489 195.221 324.489Z" fill="url(#paint9_linear)"/>
<path d="M105.179 120.464L192.964 165.687L193.851 183.824L143.63 219.534L140.487 592.841L108.807 578.411L105.179 120.464Z" fill="url(#paint10_linear)"/>
<path d="M179.341 69.7606L105.099 120.464L252.213 198.737C256.566 200.994 263.579 200.591 267.609 197.85L494.285 39.0481L429.152 1L262.611 114.983L179.341 69.7606Z" fill="url(#paint11_linear)"/>
<path d="M179.341 69.7606L105.099 120.464L252.213 198.737C256.566 200.994 263.579 200.591 267.609 197.85L494.285 39.0481L429.152 1L262.611 114.983L179.341 69.7606Z" fill="url(#paint12_linear)"/>
<path d="M179.341 69.7606L105.099 120.464L252.213 198.737C256.566 200.994 263.579 200.591 267.609 197.85L494.285 39.0481L429.152 1L262.611 114.983L179.341 69.7606Z" stroke="#1B1B1A" stroke-width="1.1228"/>
<path d="M179.341 69.7606L105.099 120.464L252.213 198.737C256.566 200.994 263.579 200.591 267.609 197.85L494.285 39.0481L429.152 1L262.611 114.983L179.341 69.7606Z" fill="url(#paint13_linear)"/>
<path d="M140.487 592.84L157.334 581.071L157.737 540.605L140.648 531.979L140.487 592.84Z" fill="url(#paint14_linear)"/>
<path d="M333.71 722.785L334.516 616.621L304.69 637.66L303.803 706.421L333.71 722.785Z" fill="#004E92"/>
<path d="M396.586 326.827L367.082 348.35C371.032 328.358 366.518 319.007 355.555 317.718C351.686 317.234 347.816 318.927 345.317 321.99C330.808 340.288 322.666 347.06 308.237 348.108L307.35 302.885L396.505 244.523V326.827H396.586Z" fill="url(#paint15_linear)"/>
<path opacity="0.95" d="M307.431 302.805L233.188 265.725C244.393 308.932 263.982 354.396 309.204 348.108L307.431 302.805Z" fill="url(#paint16_linear)"/>
<path opacity="0.95" d="M233.188 265.724C233.269 257.098 232.866 249.924 231.093 241.46C227.385 223.565 211.666 210.425 193.448 210.022C179.341 209.7 162.654 213.085 144.598 218.647C144.356 218.728 144.195 218.406 144.356 218.244L207.554 173.989C230.851 187.048 253.18 199.462 258.742 198.253C263.74 200.188 274.138 192.207 284.618 184.066L396.586 244.443L352 274.5L307.431 302.805L233.188 265.724Z" fill="url(#paint17_linear)"/>
<path d="M408.758 447.581C432.457 457.819 438.664 461.124 438.181 467.008L409.725 486.516L408.758 447.581Z" fill="url(#paint18_linear)"/>
<path d="M140.487 394.7L81.883 434.925C80.5932 435.812 78.981 435.892 77.6106 435.167L45.7696 417.755C43.9155 416.707 43.7543 414.127 45.4471 412.918L106.953 368.502L107.839 417.352L140.487 394.7Z" fill="url(#paint19_linear)"/>
<path d="M141.776 470.232L73.4996 515.052L43.5931 498.768L43.9156 415.417L79.9484 436.054L142.744 392.443L141.776 470.232Z" fill="url(#paint20_linear)"/>
<path d="M232.786 389.219L192.561 420.012C188.772 423.478 186.676 428.315 186.676 433.393V686.026C186.676 692.797 183.291 699.165 177.729 703.035L140.567 728.588" stroke="#FF7BAC" stroke-width="2.2455" stroke-miterlimit="10"/>
<path d="M102.922 656.2C89.3798 661.843 53.0246 690.621 20.2968 715.61" stroke="#FF7BAC" stroke-width="2.2455" stroke-miterlimit="10"/>
<path d="M438.18 466.202L238.186 604.61L202.073 586.876C198.204 584.941 193.609 587.682 193.448 591.954L190.546 654.024C190.384 657.49 192.319 660.795 195.463 662.327L237.38 683.286L440.115 544.797L438.18 466.202Z" fill="url(#paint21_linear)"/>
<defs>
<linearGradient id="paint0_linear" x1="141.355" y1="418.653" x2="396.58" y2="418.653" gradientUnits="userSpaceOnUse">
<stop stop-color="#FFFF00"/>
<stop offset="0.2024" stop-color="#FFF607"/>
<stop offset="0.5389" stop-color="#FDDC1A"/>
<stop offset="0.9657" stop-color="#FBB339"/>
<stop offset="0.9944" stop-color="#FBB03B"/>
</linearGradient>
<linearGradient id="paint1_linear" x1="304.264" y1="644.464" x2="408.345" y2="644.464" gradientUnits="userSpaceOnUse">
<stop stop-color="#2C3E50" stop-opacity="0.95"/>
<stop offset="1" stop-color="#004E92"/>
</linearGradient>
<linearGradient id="paint2_linear" x1="334.497" y1="452.775" x2="409.703" y2="452.775" gradientUnits="userSpaceOnUse">
<stop stop-color="#2C3E50" stop-opacity="0.95"/>
<stop offset="1" stop-color="#004E92"/>
</linearGradient>
<linearGradient id="paint3_linear" x1="339.561" y1="545.325" x2="527.777" y2="545.325" gradientUnits="userSpaceOnUse">
<stop stop-color="#004E92"/>
<stop offset="1" stop-color="#2C3E50" stop-opacity="0.95"/>
</linearGradient>
<linearGradient id="paint4_linear" x1="3.97528" y1="685.33" x2="138.64" y2="685.33" gradientUnits="userSpaceOnUse">
<stop stop-color="#ED1E79"/>
<stop offset="0.1472" stop-color="#EE1C70"/>
<stop offset="0.3921" stop-color="#F21556"/>
<stop offset="0.7022" stop-color="#F80B2D"/>
<stop offset="0.9944" stop-color="#FF0000"/>
</linearGradient>
<linearGradient id="paint5_linear" x1="79.4261" y1="728.761" x2="141.807" y2="728.761" gradientUnits="userSpaceOnUse">
<stop stop-color="#ED1E79"/>
<stop offset="0.1472" stop-color="#EE1C70"/>
<stop offset="0.3921" stop-color="#F21556"/>
<stop offset="0.7022" stop-color="#F80B2D"/>
<stop offset="0.9944" stop-color="#FF0000"/>
</linearGradient>
<linearGradient id="paint6_linear" x1="139.297" y1="567.059" x2="263.537" y2="567.059" gradientUnits="userSpaceOnUse">
<stop stop-color="#ED1E79"/>
<stop offset="0.1472" stop-color="#EE1C70"/>
<stop offset="0.3921" stop-color="#F21556"/>
<stop offset="0.7022" stop-color="#F80B2D"/>
<stop offset="0.9944" stop-color="#FF0000"/>
</linearGradient>
<linearGradient id="paint7_linear" x1="0.0635952" y1="587.922" x2="263.537" y2="587.922" gradientUnits="userSpaceOnUse">
<stop offset="0.859375" stop-color="#F6A5AE"/>
<stop offset="1"/>
</linearGradient>
<linearGradient id="paint8_linear" x1="249.961" y1="371.138" x2="266.252" y2="371.138" gradientUnits="userSpaceOnUse">
<stop stop-color="#004E92"/>
<stop offset="1" stop-color="#2C3E50" stop-opacity="0.95"/>
</linearGradient>
<linearGradient id="paint9_linear" x1="187.06" y1="337.198" x2="203.351" y2="337.198" gradientUnits="userSpaceOnUse">
<stop stop-color="#004E92"/>
<stop offset="1" stop-color="#2C3E50" stop-opacity="0.95"/>
</linearGradient>
<linearGradient id="paint10_linear" x1="105.153" y1="356.657" x2="193.848" y2="356.657" gradientUnits="userSpaceOnUse">
<stop stop-color="#2C3E50"/>
<stop offset="0.2315" stop-color="#264059"/>
<stop offset="0.615" stop-color="#154673"/>
<stop offset="0.9944" stop-color="#004E92"/>
</linearGradient>
<linearGradient id="paint11_linear" x1="105.153" y1="100.585" x2="494.326" y2="100.585" gradientUnits="userSpaceOnUse">
<stop stop-color="#004E92"/>
<stop offset="1" stop-color="#2C3E50" stop-opacity="0.95"/>
</linearGradient>
<linearGradient id="paint12_linear" x1="105.153" y1="100.585" x2="494.326" y2="100.585" gradientUnits="userSpaceOnUse">
<stop stop-color="#004E92"/>
<stop offset="1" stop-color="#2C3E50" stop-opacity="0.95"/>
</linearGradient>
<linearGradient id="paint13_linear" x1="105.153" y1="100.585" x2="494.326" y2="100.585" gradientUnits="userSpaceOnUse">
<stop stop-color="#004E92"/>
<stop offset="1" stop-color="#2C3E50" stop-opacity="0.95"/>
</linearGradient>
<linearGradient id="paint14_linear" x1="140.45" y1="562.428" x2="157.704" y2="562.428" gradientUnits="userSpaceOnUse">
<stop stop-color="#004E92"/>
<stop offset="1" stop-color="#2C3E50" stop-opacity="0.95"/>
</linearGradient>
<linearGradient id="paint15_linear" x1="307.432" y1="296.355" x2="396.58" y2="296.355" gradientUnits="userSpaceOnUse">
<stop stop-color="#004E92"/>
<stop offset="0.0772721" stop-color="#054C8B"/>
<stop offset="0.4569" stop-color="#1A446B"/>
<stop offset="0.7762" stop-color="#274057"/>
<stop offset="0.9944" stop-color="#2C3E50"/>
</linearGradient>
<linearGradient id="paint16_linear" x1="233.218" y1="307.176" x2="309.242" y2="307.176" gradientUnits="userSpaceOnUse">
<stop stop-color="#034F70" stop-opacity="0.95"/>
<stop offset="0.4515" stop-color="#024E79" stop-opacity="0.9727"/>
<stop offset="0.9944" stop-color="#004C8B"/>
</linearGradient>
<linearGradient id="paint17_linear" x1="144.303" y1="238.383" x2="396.58" y2="238.383" gradientUnits="userSpaceOnUse">
<stop stop-color="#004E92"/>
<stop offset="0.0772721" stop-color="#054C8B"/>
<stop offset="0.4569" stop-color="#1A446B"/>
<stop offset="0.7762" stop-color="#274057"/>
<stop offset="0.9944" stop-color="#2C3E50"/>
</linearGradient>
<linearGradient id="paint18_linear" x1="408.798" y1="467.073" x2="438.235" y2="467.073" gradientUnits="userSpaceOnUse">
<stop stop-color="#FFFF00"/>
<stop offset="0.2024" stop-color="#FFF607"/>
<stop offset="0.5389" stop-color="#FDDC1A"/>
<stop offset="0.9657" stop-color="#FBB339"/>
<stop offset="0.9944" stop-color="#FBB03B"/>
</linearGradient>
<linearGradient id="paint19_linear" x1="44.2824" y1="402.009" x2="140.45" y2="402.009" gradientUnits="userSpaceOnUse">
<stop stop-color="#FBB03B"/>
<stop offset="1" stop-color="#FFFF00"/>
</linearGradient>
<linearGradient id="paint20_linear" x1="43.6092" y1="453.723" x2="142.712" y2="453.723" gradientUnits="userSpaceOnUse">
<stop stop-color="#FFFF00"/>
<stop offset="0.2024" stop-color="#FFF607"/>
<stop offset="0.5389" stop-color="#FDDC1A"/>
<stop offset="0.9657" stop-color="#FBB339"/>
<stop offset="0.9944" stop-color="#FBB03B"/>
</linearGradient>
<linearGradient id="paint21_linear" x1="190.488" y1="574.774" x2="440.022" y2="574.774" gradientUnits="userSpaceOnUse">
<stop stop-color="#FFFF00"/>
<stop offset="0.2024" stop-color="#FFF607"/>
<stop offset="0.5389" stop-color="#FDDC1A"/>
<stop offset="0.9657" stop-color="#FBB339"/>
<stop offset="0.9944" stop-color="#FBB03B"/>
</linearGradient>
</defs>
</svg>
