<svg xmlns="http://www.w3.org/2000/svg" viewBox="0 0 707.09 582.15"><defs><style>.cls-1{fill:none;stroke:#f0f;stroke-miterlimit:10;}</style></defs><title>logga</title><g id="Lager_2" data-name="Lager 2"><path class="cls-1" d="M801.5,780.5h93l-1-256c-11.62-109.85-71.36-177.53-193-191-122.35,8.39-185.08,70.75-196,180l-1,187c8.79,54.66,41,79.44,89,84v-270c0-124.07,210-124.07,210,0v257l91-9-89-23,86-7-84-20,84-9-86-20,84-7-83-19,85-8-84-18,85-9-86-19,86-9-87-21,87-9-86-23,83-11-84-25,82-6-86-17,76-19-88-6,73-25-92,7,71-39-83,31,49-60-70,52,22-73-46,69,1-79-25,77-16-76-8,81-35-72,8,82-49-63,22,85-54-57,37,81-59-51,52,79-74-24,74,44-77-4,77,29-78,7,76,18-77,18,81,16-82,20,78,10-75,17,77,19-80,16,82,16-74,18,74,19-44,17,40-36-71-18,68-17-62-17,59-17-72-15,78-16-75-16,75-18-76-16,74-13-73-22,74-3-71-34,71,12-60-59,66,30-45-74,56,47-27-78,49,54-11-75,40,61-1-74,28,70,16-75,8,71,32-69-8,74,54-57-32,65,72-40-38,64,68-35-53,56,69-25-62,50,72-17-70,48,79-15-79,46,80-12-79,42,79-12-79,42,79-12-80,39,82-10-82,35,81-7-82,35,83-11-81,39,80-11-79,42,76-13,275,40v-88q-100.89-16.43-118-114v-92h82c54.9-11,78.52-43.83,86-88h-165v-109c-15.92-58-52.52-83.34-101-90v387c22.5,130.72,101.73,179.64,207,191l-5-83-24,74,4-79-31,72,6-81-32,69,10-84-40,70,21-91-53,65,39-91-57,69,50-91-65,65,61-81-71,50,72-73-81,38,79-63-83,36,84-61-86,27,83-47-82,9,91-35,30,18,23-76,10,74,25-70,7,68,22-69,5,55,28-53-5,33-14-32-21,58-10-58-23,67-9-70-22,70-17-71-19,73-99-14,99-21-100-4,106-23-108-8,90-19-91-6,91-17-91-12,91-13-91-13,91-14-91-13,90-9-91-21,82-9-81-17,59-10-60-19,66,30-62,12,81,19-81,11,85,14-85,15,81,10-85,15,88,12-84,14,83,9-77,18,84,10-87,21,96,6-98,20,74,6-72,22,78,19-81,13,83,11-83,26,81-3-75,31,75-4-72,36,74-17-64,50,71-31-59,63,69-34-24,81,41-58-13,80,34-63-6,70,30-63-3,79,25-70,5,70,13-61c-152.63,33.88-210.69-156.35-204-500l-106,100c-32.37-1.47-49.17-20.93-49-60,5.72-27.94,22.45-43.58,51-46,29.88,1,48.08,16.8,55,47,2,31.36-12.74,52.51-50,60l-43-20,69,5-75-24,86,8-89-23,97,12-94-25,91,8-86-22,81,5-70-17,53-2-54,9,65-1-73,17h82l-85,12,84,6-83,7,75,22-71-5,53,20Z" transform="translate(-503 -203.93)"/></g></svg>