<svg width="898" height="674" viewBox="0 0 898 674" fill="none" xmlns="http://www.w3.org/2000/svg">
<path d="M662.335 478.906V548.153C577.582 548.153 509 488.274 509 414.279V165C550.527 165 584.133 189.78 584.133 220.396V420.438C584.133 452.759 618.424 478.914 660.8 478.914" fill="white"/>
<path d="M581 361H650.41C673.955 361 693 329.696 693 291H581" fill="white"/>
<path d="M379.2 385.84C379.2 375.093 376.08 367.293 369.84 362.44C363.947 357.24 355.8 354.64 345.4 354.64C338.467 354.64 331.533 355.507 324.6 357.24C318.013 358.973 312.293 361.573 307.44 365.04V545.48C303.973 546.52 298.427 547.56 290.8 548.6C283.52 549.64 275.893 550.16 267.92 550.16C260.293 550.16 253.36 549.64 247.12 548.6C241.227 547.56 236.2 545.48 232.04 542.36C227.88 539.24 224.587 535.08 222.16 529.88C220.08 524.333 219.04 517.227 219.04 508.56V352.56C219.04 343.2 220.947 335.573 224.76 329.68C228.92 323.787 234.467 318.413 241.4 313.56C253.187 305.24 267.92 298.48 285.6 293.28C303.627 288.08 323.56 285.48 345.4 285.48C384.573 285.48 414.733 294.147 435.88 311.48C457.027 328.467 467.6 352.213 467.6 382.72V545.48C464.133 546.52 458.587 547.56 450.96 548.6C443.68 549.64 436.053 550.16 428.08 550.16C420.453 550.16 413.52 549.64 407.28 548.6C401.387 547.56 396.36 545.48 392.2 542.36C388.04 539.24 384.747 535.08 382.32 529.88C380.24 524.333 379.2 517.227 379.2 508.56V385.84Z" fill="white"/>
<circle cx="427" cy="203" r="38" fill="white"/>
<path d="M27.0107 661V644.457L42.6309 614.345H30.6338L21.7471 633.554H21.3369L12.4844 614.345H0.111328L15.7314 644.765V661H27.0107ZM59.1725 623.812C48.0982 623.812 41.8092 631.229 41.8092 641.483V643.808C41.8092 654.848 48.0641 661.684 59.1725 661.684C70.2467 661.684 76.5016 654.848 76.5016 643.773V641.415C76.5016 631.161 70.2467 623.812 59.1725 623.812ZM59.1725 632.016C63.7184 632.016 65.3932 636.288 65.3932 641.312V644.115C65.3932 648.866 63.8209 653.48 59.1725 653.48C54.4898 653.48 52.9176 648.832 52.9176 644.115V641.312C52.9176 636.356 54.5582 632.016 59.1725 632.016ZM117.892 624.496H106.954V645.517C106.954 650.199 104.186 652.455 100.87 652.455C98.0676 652.455 94.9914 651.122 94.9914 645.619V624.496H84.0197V648.456C84.0197 657.172 88.8732 661.547 96.2219 661.547C102.408 661.547 105.724 658.163 106.749 655.36H107.262V661H117.892V624.496ZM127.29 661H138.569V641.312C138.569 636.425 140.688 633.178 146.294 633.178C147.9 633.178 149.507 633.314 150.293 633.588V624.291C149.575 624.086 148.55 623.983 147.012 623.983C142.158 623.983 139.458 627.436 138.774 629.862H138.262V624.496H127.29V661ZM179.206 661H191.887L204.294 624.496H192.912L185.939 650.883H185.529L179.377 624.496H167.619L179.206 661ZM210.001 661H220.938V624.496H210.001V661ZM209.556 615.302C209.556 618.549 212.222 620.668 215.469 620.668C218.716 620.668 221.382 618.549 221.382 615.302C221.382 612.055 218.716 609.936 215.469 609.936C212.222 609.936 209.556 612.055 209.556 615.302ZM229.584 635.57C229.584 642.406 234.745 645.106 241.137 646.439C245.546 647.328 250.126 647.67 250.126 650.814C250.126 652.763 248.451 654.438 244.999 654.438C241.718 654.438 239.667 652.797 239.428 650.473H228.798C228.798 656.967 234.233 661.684 244.487 661.684C254.809 661.684 260.688 657.035 260.688 649.413C260.688 642.885 256.279 640.287 249.613 639.091C245.478 638.339 239.941 637.929 239.941 634.579C239.941 632.494 241.718 631.024 244.726 631.024C248.349 631.024 249.682 633.075 249.921 635.092H259.491C259.491 627.846 253.647 623.812 244.931 623.812C236.796 623.812 229.584 627.23 229.584 635.57ZM268.65 661H279.588V624.496H268.65V661ZM268.206 615.302C268.206 618.549 270.872 620.668 274.119 620.668C277.366 620.668 280.032 618.549 280.032 615.302C280.032 612.055 277.366 609.936 274.119 609.936C270.872 609.936 268.206 612.055 268.206 615.302ZM305.187 623.812C294.113 623.812 287.824 631.229 287.824 641.483V643.808C287.824 654.848 294.079 661.684 305.187 661.684C316.261 661.684 322.516 654.848 322.516 643.773V641.415C322.516 631.161 316.261 623.812 305.187 623.812ZM305.187 632.016C309.733 632.016 311.408 636.288 311.408 641.312V644.115C311.408 648.866 309.835 653.48 305.187 653.48C300.504 653.48 298.932 648.832 298.932 644.115V641.312C298.932 636.356 300.573 632.016 305.187 632.016ZM330.342 661H341.279V640.15C341.279 635.741 343.706 633.075 347.397 633.075C350.371 633.075 353.379 634.75 353.379 640.014V661H364.316V637.45C364.316 628.529 359.395 623.949 352.046 623.949C345.825 623.949 342.51 627.538 341.484 630.17H340.972V624.496H330.342V661ZM408.645 646.713V637.006H387.112V646.713H408.645ZM442.001 634.955C442.001 626.889 445.761 622.685 451.298 622.685C456.801 622.685 460.561 626.889 460.561 634.955V640.561C460.561 648.661 456.801 652.66 451.298 652.66C445.761 652.66 442.001 648.661 442.001 640.561V634.955ZM430.449 640.526C430.449 653.651 438.071 661.854 451.264 661.854C464.492 661.854 472.114 653.651 472.114 640.526V635.092C472.114 621.898 464.526 613.524 451.332 613.524C438.139 613.524 430.449 621.83 430.449 635.092V640.526ZM513.709 624.496H502.771V645.517C502.771 650.199 500.003 652.455 496.688 652.455C493.885 652.455 490.809 651.122 490.809 645.619V624.496H479.837V648.456C479.837 657.172 484.69 661.547 492.039 661.547C498.226 661.547 501.541 658.163 502.566 655.36H503.079V661H513.709V624.496ZM523.107 661H534.386V641.312C534.386 636.425 536.505 633.178 542.111 633.178C543.717 633.178 545.324 633.314 546.11 633.588V624.291C545.392 624.086 544.367 623.983 542.829 623.983C537.975 623.983 535.275 627.436 534.591 629.862H534.079V624.496H523.107V661ZM589.208 661.41C597.377 661.41 602.743 655.326 602.743 644.218V641.244C602.743 630.067 597.343 624.086 589.276 624.086C584.252 624.086 580.595 626.444 578.92 630.067H578.407V624.496H567.504V673.134H578.51V655.497H578.988C580.629 659.052 584.252 661.41 589.208 661.41ZM585.106 652.934C581.141 652.934 578.475 649.652 578.475 643.842V641.586C578.475 635.81 581.107 632.597 585.038 632.597C588.934 632.597 591.43 635.707 591.43 641.586V643.842C591.43 649.857 588.866 652.934 585.106 652.934ZM610.705 661H621.985V641.312C621.985 636.425 624.104 633.178 629.709 633.178C631.316 633.178 632.922 633.314 633.708 633.588V624.291C632.991 624.086 631.965 623.983 630.427 623.983C625.574 623.983 622.873 627.436 622.19 629.862H621.677V624.496H610.705V661ZM655.616 661.684C666.451 661.684 671.168 655.053 671.715 649.311H661.769C661.324 652.011 658.897 653.617 655.65 653.617C651.891 653.617 649.02 650.849 649.02 646.2V644.97H671.954V641.312C671.954 630.546 665.392 623.812 655.206 623.812C645.602 623.812 638.321 629.794 638.321 641.142V644.047C638.321 655.668 645.362 661.684 655.616 661.684ZM649.02 638.681V638.646C649.02 634.613 651.549 631.64 655.309 631.64C659.034 631.64 661.461 634.613 661.461 638.646V638.681H649.02ZM678.276 643.876C678.276 655.053 684.839 661.684 695.161 661.684C703.945 661.684 710.576 657.377 711.054 648.08H701.142C700.869 650.78 699.399 653.241 695.673 653.241C691.743 653.241 689.316 649.755 689.316 643.773V641.244C689.316 635.741 691.743 632.289 695.639 632.289C698.647 632.289 700.732 634.75 701.04 637.689H710.952C710.781 629.794 704.902 623.812 695.195 623.812C684.599 623.812 678.276 630.922 678.276 641.21V643.876ZM718.914 661H729.852V624.496H718.914V661ZM718.47 615.302C718.47 618.549 721.136 620.668 724.383 620.668C727.63 620.668 730.296 618.549 730.296 615.302C730.296 612.055 727.63 609.936 724.383 609.936C721.136 609.936 718.47 612.055 718.47 615.302ZM738.498 635.57C738.498 642.406 743.659 645.106 750.051 646.439C754.46 647.328 759.04 647.67 759.04 650.814C759.04 652.763 757.365 654.438 753.913 654.438C750.632 654.438 748.581 652.797 748.342 650.473H737.712C737.712 656.967 743.146 661.684 753.4 661.684C763.722 661.684 769.601 657.035 769.601 649.413C769.601 642.885 765.192 640.287 758.527 639.091C754.391 638.339 748.854 637.929 748.854 634.579C748.854 632.494 750.632 631.024 753.639 631.024C757.263 631.024 758.596 633.075 758.835 635.092H768.405C768.405 627.846 762.56 623.812 753.845 623.812C745.71 623.812 738.498 627.23 738.498 635.57ZM777.564 661H788.501V624.496H777.564V661ZM777.12 615.302C777.12 618.549 779.786 620.668 783.033 620.668C786.28 620.668 788.946 618.549 788.946 615.302C788.946 612.055 786.28 609.936 783.033 609.936C779.786 609.936 777.12 612.055 777.12 615.302ZM814.101 623.812C803.026 623.812 796.737 631.229 796.737 641.483V643.808C796.737 654.848 802.992 661.684 814.101 661.684C825.175 661.684 831.43 654.848 831.43 643.773V641.415C831.43 631.161 825.175 623.812 814.101 623.812ZM814.101 632.016C818.646 632.016 820.321 636.288 820.321 641.312V644.115C820.321 648.866 818.749 653.48 814.101 653.48C809.418 653.48 807.846 648.832 807.846 644.115V641.312C807.846 636.356 809.486 632.016 814.101 632.016ZM839.255 661H850.193V640.15C850.193 635.741 852.62 633.075 856.311 633.075C859.285 633.075 862.293 634.75 862.293 640.014V661H873.23V637.45C873.23 628.529 868.308 623.949 860.96 623.949C854.739 623.949 851.423 627.538 850.398 630.17H849.885V624.496H839.255V661ZM881.842 655.634C881.842 659.018 884.611 661.786 887.994 661.786C891.378 661.786 894.147 659.018 894.147 655.634C894.147 652.25 891.378 649.481 887.994 649.481C884.611 649.481 881.842 652.25 881.842 655.634Z" fill="white"/>
</svg>
