<svg id="Lager_1" data-name="Lager 1" xmlns="http://www.w3.org/2000/svg" viewBox="0 0 390.98 449.55"><defs><style>.cls-1,.cls-2{fill:#2e2e2e;}.cls-1{stroke:#fff;stroke-miterlimit:10;stroke-width:72.75px;}</style></defs><title>logga</title><path class="cls-1" d="M1183.56,780.77" transform="translate(-568.16 -386.72)"/><path class="cls-2" d="M658.42,836.27l.1-29.22-.1-232.35a100.35,100.35,0,0,1,10.78-45.77c36.07-70.44,143.68-74.69,185.54-5.17a104.4,104.4,0,0,1,14.67,53.9V833.85h89.73V598c0-42.38-7.54-85.29-30.31-121C905.35,440.09,867.34,412,825.05,397.2c-28.53-10-59.93-13.17-89.73-8.09-77.8,13.27-130.22,53.44-154.9,119.36-9.5,25.36-11.71,56-11.79,83.12l-.47,154.14A90.27,90.27,0,0,0,658.42,836.27Z" transform="translate(-568.16 -386.72)"/></svg>